<svg version="1.2" xmlns="http://www.w3.org/2000/svg" viewBox="0 0 799.9999999999999 799.9999999999999" width="800" height="800">
	<title>hasura-svgrepo-com</title>
	<style>
		.s0 { fill: #ffffff } 
		.s1 { fill: #000000;stroke: #ffffff;stroke-miterlimit:100;stroke-width: 11 } 
	</style>
	<path id="Shape 1" fill-rule="evenodd" class="s0" d="m559 308v402h-315v-402z"/>
	<path class="s1" d="m430.5 156.9c24.1 2.7 45.6 7.2 65.8 13.7 27.2 8.8 52.8 21.2 76.1 36.5 77.4-67.3 44.6-180.3 64.2-192.7 32.1-20.5 92.4 97.1 87.8 171.9-2.5 39.9-13.1 98.4-42.1 143.8 14.9 29.8 25.3 62.1 30.2 95.9 2 13.8 2.6 19.8 2.8 33.4q0.2 5.9 0.2 11.9 0 5.7-0.2 11.5c-0.1 15-0.7 20.9-2.8 35.3-8.6 59.7-34.4 115.7-74.4 161.6-18.8 21.6-42.5 42.4-64.9 57l-2.6 1.7-3 1.8c-6.9 4.4-13.8 8.6-21.1 12.3-0.8 0.4-1.9 1-3.1 1.5-35.4 18.2-71.4 28.7-113.9 33.4-9.6 1-51 1-60.5 0-24.6-2.8-46.3-7.3-66.8-13.9-83.5-26.9-151.1-87.3-188.2-164-20.7-41.7-32.3-88.6-32.3-138.2 0-50.8 12.4-98.7 34.1-141.2-29.1-45.4-39.7-103.9-42.2-143.8-4.6-74.8 55.7-192.4 87.8-171.9 19.6 12.5-13.3 125.6 64.4 192.9 42.8-28.1 92.1-45.8 143.2-50.4 3.9-0.3 8.2-0.7 9.5-0.8 5.2-0.5 46 0.1 52 0.8zm90.1 505.6c-27.6-41.7-83.7-126.6-124.8-188.9-41-62.2-75.3-113.9-76.2-114.9-3.3-3.5-5.4-4-18-4-10.7 0-11.7 0.1-14.2 1.3-1.5 0.8-3.6 2.5-4.6 3.8l-1.9 2.4-0.2 124-0.1 123.9 1.3 2.7c0.9 1.8 2.3 3.4 4.1 4.6l2.9 1.8h10.7c9.3 0 11-0.2 13-1.2 2.6-1.4 3.8-2.6 5.4-5.6 1.1-2.1 1.2-5.7 1.4-94.8 0.1-50.8 0.4-92.5 0.6-92.4 0.3 0 28.9 42.1 63.8 93.7l63.3 93.7 50.6 68.3q4.2 5.7 8.3 11.2 12.9-6.2 24.9-13.8zm-25.4-316.6c-9.7 0-10.6 0.2-13.1 1.5-3 1.6-5.2 4.3-6.1 7.7-0.4 1.5-0.7 30.8-0.7 83v80.8l19.7 30 19.6 30.1 0.2-111.1c0.1-77.5 0-111.8-0.5-113.4-0.9-3-3.3-5.8-6.3-7.3-2-1.1-3.6-1.3-12.8-1.3z"/>
	<g>
	</g>
</svg>