<svg version="1.2" xmlns="http://www.w3.org/2000/svg" viewBox="0 0 800.0000000000001 800.0000000000001" width="801" height="801">
	<title>logo</title>
	<style>
		.s0 { fill: #ffffff } 
		.s1 { fill: #000000;stroke: #ffffff;stroke-miterlimit:100;stroke-width: 11 } 
	</style>
	<g id="Layer 1">
		<path id="Shape 1" fill-rule="evenodd" class="s0" d="m556.9 260.6v392.6h-311v-392.6z"/>
		<path class="s1" d="m424.5 205.2c19.6 2.2 37 5.8 53.3 11 22.1 7.1 42.8 17 61.7 29.3 62.7-54 36.2-144.5 52-154.5 26-16.4 74.9 77.9 71.2 137.8-2 32-10.6 78.8-34.1 115.2 12 23.9 20.5 49.8 24.4 76.9 1.7 11 2.1 15.8 2.3 26.7q0.2 4.7 0.2 9.5 0 4.6-0.2 9.3c-0.1 12-0.6 16.7-2.3 28.2-6.9 47.9-27.8 92.8-60.2 129.5-15.3 17.3-34.5 34-52.6 45.7l-2.1 1.4-2.5 1.4c-5.6 3.5-11.2 6.9-17.1 9.9-0.6 0.3-1.5 0.8-2.5 1.2-28.7 14.6-57.8 23-92.3 26.7-7.8 0.8-41.3 0.8-49 0-19.9-2.2-37.5-5.8-54.1-11.1-67.7-21.6-122.5-70-152.5-131.4-16.8-33.4-26.2-71-26.2-110.8 0-40.7 10-79 27.6-113.1-23.6-36.4-32.2-83.2-34.2-115.2-3.7-59.9 45.2-154.2 71.2-137.8 15.8 10.1-10.8 100.7 52.1 154.6 34.7-22.5 74.7-36.7 116.1-40.4 3.2-0.2 6.6-0.5 7.7-0.6 4.2-0.4 37.3 0.1 42.1 0.6zm73 405.2c-22.3-33.5-67.8-101.5-101.1-151.4-33.2-49.8-61-91.3-61.7-92.1-2.7-2.8-4.4-3.2-14.6-3.2-8.7 0-9.5 0.1-11.5 1.1-1.2 0.6-3 2-3.8 3l-1.5 1.9-0.2 99.4v99.3l1 2.1c0.7 1.5 1.9 2.8 3.3 3.7l2.4 1.5h8.7c7.5 0 8.9-0.2 10.5-1 2.1-1.1 3.1-2.1 4.4-4.5 0.9-1.7 0.9-4.6 1.1-76 0.1-40.7 0.3-74.1 0.5-74 0.2 0 23.4 33.7 51.7 75.1l51.3 75.1 41 54.7q3.4 4.6 6.7 9 10.5-5 20.2-11.1zm-20.6-253.7c-7.9 0-8.6 0.2-10.6 1.2-2.4 1.3-4.2 3.5-5 6.2-0.3 1.2-0.5 24.7-0.5 66.5v64.8l15.9 24 15.9 24.1 0.2-89c0.1-62.1 0-89.6-0.4-90.9-0.8-2.4-2.7-4.6-5.1-5.8-1.6-0.9-2.9-1.1-10.4-1.1z"/>
		<g>
		</g>
	</g>
</svg>